<svg width="20" height="20" viewBox="0 0 20 20" fill="none" xmlns="http://www.w3.org/2000/svg">
<path d="M16.5766 3.20313C16.635 3.20313 16.691 3.22634 16.7323 3.26765C16.7737 3.30897 16.7969 3.36501 16.7969 3.42344V16.5781C16.7969 16.6366 16.7737 16.6926 16.7323 16.7339C16.691 16.7752 16.635 16.7984 16.5766 16.7984H3.42344C3.36501 16.7984 3.30897 16.7752 3.26765 16.7339C3.22634 16.6926 3.20312 16.6366 3.20312 16.5781V3.42344C3.20313 3.36501 3.22634 3.30897 3.26765 3.26765C3.30897 3.22634 3.36501 3.20313 3.42344 3.20313H16.5781H16.5766ZM16.5781 2.1875H3.42344C3.09565 2.1875 2.78128 2.31772 2.5495 2.5495C2.31771 2.78128 2.1875 3.09565 2.1875 3.42344V16.5781C2.18791 16.9056 2.31831 17.2196 2.55005 17.4511C2.78179 17.6825 3.09592 17.8125 3.42344 17.8125H16.5781C16.9059 17.8125 17.2203 17.6823 17.4521 17.4505C17.6838 17.2187 17.8141 16.9044 17.8141 16.5766V3.42344C17.8141 3.261 17.782 3.10016 17.7198 2.9501C17.6576 2.80005 17.5664 2.66373 17.4515 2.54895C17.3366 2.43416 17.2001 2.34315 17.05 2.28113C16.8999 2.21911 16.739 2.1873 16.5766 2.1875H16.5781Z" fill="black"/>
<path d="M7.65625 7.875H5.82344V14.3953H7.65625V7.875Z" fill="black"/>
<path d="M12.0672 7.875C10.4969 7.875 10.4688 8.78281 10.4688 8.84531V7.875H8.59375V14.3953H10.4688V10.6734C10.4688 10.3828 10.5547 9.75781 11.4422 9.75781C12.3297 9.75781 12.3219 10.6531 12.3219 10.6531V14.4031H14.1766V10.3406C14.1766 8.41406 13.125 7.875 12.0672 7.875Z" fill="black"/>
<path d="M6.73907 7.43593C7.24475 7.43593 7.65469 7.02599 7.65469 6.5203C7.65469 6.01461 7.24475 5.60468 6.73907 5.60468C6.23338 5.60468 5.82344 6.01461 5.82344 6.5203C5.82344 7.02599 6.23338 7.43593 6.73907 7.43593Z" fill="black"/>
</svg>
