<svg width="20" height="20" viewBox="0 0 20 20" fill="none" xmlns="http://www.w3.org/2000/svg">
<path d="M17.5 3.125H2.5C1.11937 3.125 0 4.245 0 5.625V13.75C0 15.1306 1.11937 16.25 2.5 16.25H17.5C18.8806 16.25 20 15.1306 20 13.75V5.625C20 4.245 18.8806 3.125 17.5 3.125ZM1.25 6.40625L5.62437 9.6875L1.25 12.9688V6.40625ZM18.75 13.75C18.75 14.44 18.1887 15 17.5 15H2.5C1.81062 15 1.25 14.44 1.25 13.75L6.145 10.0781L8.875 12.1263C9.20812 12.375 9.60375 12.5013 10 12.5013C10.3956 12.5013 10.7912 12.3756 11.1244 12.1263L13.855 10.0781L18.75 13.75ZM18.75 12.9688L14.375 9.6875L18.75 6.40625V12.9688ZM10.7494 11.6262C10.5312 11.79 10.2725 11.8763 10 11.8763C9.7275 11.8763 9.46813 11.7894 9.25 11.6262L6.66562 9.6875L6.145 9.29688L1.25 5.62563V5.625C1.25 4.93562 1.81062 4.375 2.5 4.375H17.5C18.1887 4.375 18.75 4.93562 18.75 5.625L10.7494 11.6262Z" fill="black"/>
</svg>
