<svg width="20" height="20" viewBox="0 0 20 20" fill="none" xmlns="http://www.w3.org/2000/svg">
<path fill-rule="evenodd" clip-rule="evenodd" d="M11.5677 13.8349C13.5163 13.6048 15.5889 12.8963 15.5889 9.53055C15.5889 8.57391 15.252 7.7943 14.7033 7.19191C14.7918 6.96184 15.075 6.09371 14.5965 4.8893C14.5965 4.8893 13.888 4.65891 12.2231 5.7748C11.5146 5.58016 10.7352 5.45594 10.009 5.45594C9.26473 5.45594 8.48512 5.58016 7.79426 5.7748C6.11137 4.65891 5.40285 4.8893 5.40285 4.8893C4.92469 6.09371 5.2082 6.96184 5.29668 7.19191C4.74742 7.79426 4.41086 8.57391 4.41086 9.53055C4.41086 12.8963 6.4834 13.6048 8.43203 13.8349C8.18422 14.0479 7.95387 14.455 7.86535 15.0219C7.36918 15.2343 6.07598 15.642 5.29668 14.2957C5.29668 14.2957 4.83594 13.4632 3.96809 13.4102C3.96809 13.4102 3.09996 13.3925 3.89727 13.9411C3.89727 13.9411 4.48164 14.2072 4.8716 15.2166C4.8716 15.2166 5.40285 16.8998 7.84734 16.3682V17.8737C7.84734 18.1045 7.67039 18.3699 7.22762 18.2991C3.75543 17.1475 1.25781 13.8526 1.25781 9.99102C1.25781 5.1548 5.1725 1.24016 10.009 1.24016C14.8272 1.24016 18.7599 5.15484 18.7422 9.99102C18.7422 13.8526 16.2443 17.1298 12.7723 18.2991C12.3293 18.3877 12.1523 18.1222 12.1523 17.8737V15.4473C12.1523 14.6319 11.8862 14.101 11.5677 13.8349ZM20 10.009C20 4.48164 15.5181 0 10.009 0C4.48164 0 0 4.48164 0 10.009C0 15.5181 4.48164 20 10.009 20C15.5181 20 20 15.5181 20 10.009Z" fill="black"/>
</svg>
