<svg width="20" height="20" viewBox="0 0 20 20" fill="none" xmlns="http://www.w3.org/2000/svg">
<path d="M12.9688 3.59375C13.8804 3.59375 14.7548 3.95591 15.3994 4.60057C16.0441 5.24523 16.4062 6.11957 16.4062 7.03125V12.9688C16.4062 13.8804 16.0441 14.7548 15.3994 15.3994C14.7548 16.0441 13.8804 16.4062 12.9688 16.4062H7.03125C6.11957 16.4062 5.24523 16.0441 4.60057 15.3994C3.95591 14.7548 3.59375 13.8804 3.59375 12.9688V7.03125C3.59375 6.11957 3.95591 5.24523 4.60057 4.60057C5.24523 3.95591 6.11957 3.59375 7.03125 3.59375H12.9688ZM12.9688 2.34375H7.03125C5.78919 2.34746 4.59906 2.84251 3.72078 3.72078C2.84251 4.59906 2.34746 5.78919 2.34375 7.03125V12.9688C2.34746 14.2108 2.84251 15.4009 3.72078 16.2792C4.59906 17.1575 5.78919 17.6525 7.03125 17.6562H12.9688C14.2108 17.6525 15.4009 17.1575 16.2792 16.2792C17.1575 15.4009 17.6525 14.2108 17.6562 12.9688V7.03125C17.6525 5.78919 17.1575 4.59906 16.2792 3.72078C15.4009 2.84251 14.2108 2.34746 12.9688 2.34375V2.34375Z" fill="black"/>
<path d="M14.0844 5C13.9073 5 13.7342 5.05251 13.587 5.15089C13.4397 5.24927 13.325 5.38909 13.2572 5.55269C13.1894 5.71629 13.1717 5.89631 13.2063 6.06998C13.2408 6.24365 13.3261 6.40318 13.4513 6.52839C13.5765 6.65361 13.736 6.73888 13.9097 6.77342C14.0834 6.80797 14.2634 6.79024 14.427 6.72247C14.5906 6.65471 14.7304 6.53996 14.8288 6.39272C14.9272 6.24549 14.9797 6.07239 14.9797 5.89531C14.9797 5.77774 14.9565 5.66132 14.9115 5.55269C14.8665 5.44407 14.8006 5.34537 14.7174 5.26223C14.6343 5.17909 14.5356 5.11315 14.427 5.06815C14.3184 5.02316 14.2019 5 14.0844 5V5Z" fill="black"/>
<path d="M10.0422 7.26093C10.5887 7.26062 11.123 7.42242 11.5775 7.72585C12.0321 8.02927 12.3864 8.4607 12.5957 8.96555C12.805 9.47039 12.8598 10.026 12.7533 10.562C12.6467 11.098 12.3836 11.5904 11.9971 11.9768C11.6107 12.3632 11.1183 12.6264 10.5823 12.7329C10.0463 12.8395 9.49072 12.7846 8.98587 12.5753C8.48103 12.3661 8.0496 12.0117 7.74617 11.5572C7.44274 11.1027 7.28095 10.5684 7.28126 10.0219C7.2825 9.29 7.57378 8.58847 8.09129 8.07096C8.60879 7.55345 9.31033 7.26217 10.0422 7.26093V7.26093ZM10.0422 6.01093C9.24886 6.01248 8.4738 6.24916 7.81494 6.69106C7.15608 7.13297 6.64301 7.76027 6.34055 8.49368C6.0381 9.2271 5.95985 10.0337 6.11568 10.8116C6.27151 11.5895 6.65443 12.3037 7.21606 12.864C7.77768 13.4243 8.4928 13.8056 9.27103 13.9596C10.0493 14.1136 10.8557 14.0335 11.5884 13.7293C12.3211 13.4251 12.9472 12.9106 13.3876 12.2507C13.8279 11.5908 14.0628 10.8152 14.0625 10.0219C14.0623 9.49441 13.9581 8.97217 13.7559 8.48503C13.5537 7.99788 13.2574 7.55538 12.884 7.18285C12.5106 6.81032 12.0674 6.51506 11.5797 6.31397C11.0921 6.11288 10.5696 6.00991 10.0422 6.01093V6.01093Z" fill="black"/>
</svg>
